Coordinates
version=1
nRows=16
nColumns=18
inDegrees=yes

Units are S.I. units (second, meters, Newtons, ...)
If the header above contains a line with 'inDegrees', this indicates whether rotational values are in degrees (yes) or radians (no).

endheader
time	TH_y	TH_x	TH_z	TH_x_trans	TH_y_trans	TH_z_trans	SC_y	SC_z	SC_x	AC_y	AC_z	AC_x	GH_y	GH_z	GH_yy	EL_x	PS_y
     20.00000000	     35.45055825	      0.85100960	     -1.37745621	      0.48009143	      1.37759925	     -0.28498103	    -16.38081951	     -8.02083414	    -13.90994166	     73.54476199	     -7.69170332	      0.10128030	    -37.90063184	     34.84730472	     -5.17132846	     33.89821268	     83.28118853
     20.01000000	     35.48100521	      0.87727891	     -1.38684623	      0.47994844	      1.37763379	     -0.28495659	    -16.13308162	     -8.00126272	    -13.98283197	     73.65985186	     -7.75291911	      0.05883607	    -37.68866832	     34.67583808	     -5.02420188	     31.23223801	     82.40890931
     20.02000000	     35.49976338	      0.90341987	     -1.36712318	      0.47979132	      1.37768214	     -0.28487144	    -15.94082752	     -8.00173978	    -14.03138460	     73.88480510	     -7.79508737	     -0.00288048	    -37.41130308	     34.55107361	     -4.82497192	     28.39470392	     81.21494783
     20.03000000	     35.52148802	      0.91718601	     -1.35762763	      0.47963409	      1.37775609	     -0.28480937	    -15.55114784	     -7.93719166	    -14.27593501	     74.21773048	     -8.05427392	      0.11730086	    -37.18422362	     34.56161097	     -4.43898711	     25.22279287	     83.62040357
     20.04000000	     35.52514799	      0.93729461	     -1.36043330	      0.47954828	      1.37780533	     -0.28475069	    -15.25548413	     -7.91070498	    -14.36944190	     74.43029994	     -8.15711743	      0.21465997	    -36.97876650	     34.50528411	     -4.22020288	     22.18476119	     83.83788771
     20.05000000	     35.62626426	      0.94450148	     -1.32749154	      0.47930732	      1.37787432	     -0.28464165	    -14.95803348	     -7.88819815	    -14.53540512	     74.67628408	     -8.33735216	      0.35152751	    -36.81138246	     34.50321992	     -3.94752949	     19.22188193	     84.20843105
     20.06000000	     35.61184340	      0.96581471	     -1.36030837	      0.47937168	      1.37791916	     -0.28466956	    -14.48443377	     -7.87367065	    -14.78841591	     74.87356030	     -8.64880150	      0.91638927	    -36.94715888	     34.86362637	     -3.63506839	     16.44302925	     83.42356655
     20.07000000	     35.63952677	      0.95195030	     -1.42969697	      0.47946143	      1.37799968	     -0.28486992	    -14.13157878	     -8.64925069	    -15.73308613	     75.71287117	     -9.97172064	      3.10745099	    -38.65894561	     38.29276527	     -2.19836171	     13.90039990	     82.33610981
     20.08000000	     35.73909508	      0.93942198	     -1.40046014	      0.47917864	      1.37808194	     -0.28486547	    -13.85581656	     -8.62342124	    -15.89885337	     75.93068652	    -10.14696670	      3.22617037	    -38.48233039	     38.21804275	     -1.94088744	     11.17042478	     82.68252494
     20.09000000	     35.79970194	      0.92952476	     -1.41285819	      0.47899184	      1.37816163	     -0.28493382	    -13.54420117	     -8.62605135	    -16.09033508	     76.00918678	    -10.37836185	      3.66632572	    -38.59945430	     38.42401454	     -1.72522980	      8.68153998	     84.27422783
     20.10000000	     35.90306936	      0.95699173	     -1.43479679	      0.47888085	      1.37817412	     -0.28495349	    -13.24978701	     -8.49287032	    -16.21025096	     75.91948752	    -10.50893796	      4.01243516	    -38.64613234	     38.28373263	     -1.73048916	      6.49170830	     84.48372368
     20.11000000	     36.02875065	      0.96424151	     -1.47998826	      0.47875951	      1.37822093	     -0.28504230	    -13.02386917	     -8.45064883	    -16.37592972	     75.68329174	    -10.74163373	      4.72971258	    -39.12558509	     38.57558114	     -1.78567755	      4.74589793	     86.53102177
     20.12000000	     36.20878463	      0.92742041	     -1.46482772	      0.47850750	      1.37834691	     -0.28518064	    -12.94024753	     -8.53243697	    -16.53724050	     75.44532869	    -10.98185888	      5.35910869	    -39.68648734	     38.95378088	     -1.86794259	      3.42699120	     87.95879819
     20.13000000	     36.31704779	      0.92357503	     -1.47820769	      0.47833559	      1.37843379	     -0.28528880	    -12.64599329	     -8.51988232	    -16.73084699	     75.00307575	    -11.24280539	      6.05480849	    -40.37047586	     39.23427746	     -2.08734185	      2.59107613	     89.06635174
     20.14000000	     36.46220881	      0.91893761	     -1.51784384	      0.47818906	      1.37851350	     -0.28543032	    -12.44400625	     -8.51762294	    -16.89588784	     74.46661709	    -11.49093805	      6.80919681	    -41.20704386	     39.56596008	     -2.44907778	      2.21543911	     89.89132444
     20.15000000	     36.52390236	      0.92415377	     -1.49065834	      0.47798135	      1.37858890	     -0.28549505	    -12.22219949	     -8.45750860	    -17.05310453	     73.91313858	    -11.67392100	      7.20348638	    -41.76825725	     39.55029622	     -2.78262886	      2.01463763	     91.04256742
